<svg width="1265" height="270" xmlns="http://www.w3.org/2000/svg"><g><path d="M-93,-123L-100,280L-55,49Z" fill="#404040" stroke="#404040"/><path d="M-93,-123L-55,49L70,-27Z" fill="#323232" stroke="#323232"/><path d="M-93,-123L70,-27L220,-62Z" fill="#2f2f2f" stroke="#2f2f2f"/><path d="M-93,-123L220,-62L425,-133Z" fill="#2c2c2c" stroke="#2c2c2c"/><path d="M70,-27L-55,49L35,83Z" fill="#3e3e3e" stroke="#3e3e3e"/><path d="M70,-27L35,83L236,105Z" fill="#434343" stroke="#434343"/><path d="M70,-27L236,105L220,-62Z" fill="#3e3e3e" stroke="#3e3e3e"/><path d="M220,-62L236,105L337,98Z" fill="#464646" stroke="#464646"/><path d="M220,-62L337,98L425,-133Z" fill="#3c3c3c" stroke="#3c3c3c"/><path d="M425,-133L337,98L527,28Z" fill="#434343" stroke="#434343"/><path d="M425,-133L527,28L525,-54Z" fill="#393939" stroke="#393939"/><path d="M425,-133L525,-54L682,-61Z" fill="#333333" stroke="#333333"/><path d="M425,-133L682,-61L841,-133Z" fill="#2c2c2c" stroke="#2c2c2c"/><path d="M525,-54L527,28L636,18Z" fill="#3f3f3f" stroke="#3f3f3f"/><path d="M525,-54L636,18L682,-61Z" fill="#393939" stroke="#393939"/><path d="M682,-61L636,18L866,58Z" fill="#3c3c3c" stroke="#3c3c3c"/><path d="M682,-61L866,58L841,-133Z" fill="#323232" stroke="#323232"/><path d="M841,-133L866,58L927,-23Z" fill="#323232" stroke="#323232"/><path d="M841,-133L927,-23L1122,-66Z" fill="#292929" stroke="#292929"/><path d="M841,-133L1122,-66L1301,-92Z" fill="#222222" stroke="#222222"/><path d="M841,-133L1301,-92L1418,-126Z" fill="#1c1c1c" stroke="#1c1c1c"/><path d="M927,-23L866,58L976,86Z" fill="#3c3c3c" stroke="#3c3c3c"/><path d="M927,-23L976,86L1092,19Z" fill="#383838" stroke="#383838"/><path d="M927,-23L1092,19L1122,-66Z" fill="#2f2f2f" stroke="#2f2f2f"/><path d="M1122,-66L1092,19L1224,75Z" fill="#313131" stroke="#313131"/><path d="M1122,-66L1224,75L1301,-92Z" fill="#292929" stroke="#292929"/><path d="M1301,-92L1224,75L1455,70Z" fill="#2d2d2d" stroke="#2d2d2d"/><path d="M1301,-92L1455,70L1418,-126Z" fill="#212121" stroke="#212121"/><path d="M-55,49L-100,280L50,237Z" fill="#353535" stroke="#353535"/><path d="M-55,49L50,237L35,83Z" fill="#414141" stroke="#414141"/><path d="M35,83L50,237L169,204Z" fill="#3b3b3b" stroke="#3b3b3b"/><path d="M35,83L169,204L236,105Z" fill="#434343" stroke="#434343"/><path d="M236,105L169,204L272,325Z" fill="#393939" stroke="#393939"/><path d="M236,105L272,325L401,223Z" fill="#3a3a3a" stroke="#3a3a3a"/><path d="M236,105L401,223L337,98Z" fill="#474747" stroke="#474747"/><path d="M337,98L401,223L468,201Z" fill="#444444" stroke="#444444"/><path d="M337,98L468,201L527,28Z" fill="#4e4e4e" stroke="#4e4e4e"/><path d="M527,28L468,201L636,18Z" fill="#4d4d4d" stroke="#4d4d4d"/><path d="M636,18L468,201L721,203Z" fill="#444444" stroke="#444444"/><path d="M636,18L721,203L866,58Z" fill="#484848" stroke="#484848"/><path d="M866,58L721,203L824,234Z" fill="#3b3b3b" stroke="#3b3b3b"/><path d="M866,58L824,234L960,192Z" fill="#3a3a3a" stroke="#3a3a3a"/><path d="M866,58L960,192L976,86Z" fill="#404040" stroke="#404040"/><path d="M976,86L960,192L1182,193Z" fill="#363636" stroke="#363636"/><path d="M976,86L1182,193L1092,19Z" fill="#3e3e3e" stroke="#3e3e3e"/><path d="M1092,19L1182,193L1224,75Z" fill="#3c3c3c" stroke="#3c3c3c"/><path d="M1224,75L1182,193L1240,189Z" fill="#323232" stroke="#323232"/><path d="M1224,75L1240,189L1377,168Z" fill="#313131" stroke="#313131"/><path d="M1224,75L1377,168L1455,70Z" fill="#363636" stroke="#363636"/><path d="M1455,70L1377,168L1396,426Z" fill="#222222" stroke="#222222"/><path d="M-100,280L-86,408L24,347Z" fill="#1d1d1d" stroke="#1d1d1d"/><path d="M-100,280L24,347L50,237Z" fill="#272727" stroke="#272727"/><path d="M50,237L24,347L169,204Z" fill="#2d2d2d" stroke="#2d2d2d"/><path d="M169,204L24,347L272,325Z" fill="#2a2a2a" stroke="#2a2a2a"/><path d="M401,223L272,325L340,400Z" fill="#2c2c2c" stroke="#2c2c2c"/><path d="M401,223L340,400L543,325Z" fill="#2e2e2e" stroke="#2e2e2e"/><path d="M401,223L543,325L468,201Z" fill="#373737" stroke="#373737"/><path d="M468,201L543,325L721,203Z" fill="#353535" stroke="#353535"/><path d="M721,203L543,325L732,427Z" fill="#272727" stroke="#272727"/><path d="M721,203L732,427L824,234Z" fill="#292929" stroke="#292929"/><path d="M824,234L732,427L850,404Z" fill="#1e1e1e" stroke="#1e1e1e"/><path d="M824,234L850,404L962,326Z" fill="#212121" stroke="#212121"/><path d="M824,234L962,326L960,192Z" fill="#2b2b2b" stroke="#2b2b2b"/><path d="M960,192L962,326L1182,193Z" fill="#2a2a2a" stroke="#2a2a2a"/><path d="M1182,193L962,326L1173,402Z" fill="#1d1d1d" stroke="#1d1d1d"/><path d="M1182,193L1173,402L1313,358Z" fill="#181818" stroke="#181818"/><path d="M1182,193L1313,358L1240,189Z" fill="#222222" stroke="#222222"/><path d="M1240,189L1313,358L1377,168Z" fill="#222222" stroke="#222222"/><path d="M1377,168L1313,358L1396,426Z" fill="#141414" stroke="#141414"/><path d="M-86,408L732,427L340,400Z" fill="#232323" stroke="#232323"/><path d="M-86,408L340,400L24,347Z" fill="#1c1c1c" stroke="#1c1c1c"/><path d="M24,347L340,400L272,325Z" fill="#222222" stroke="#222222"/><path d="M340,400L732,427L543,325Z" fill="#222222" stroke="#222222"/><path d="M732,427L1396,426L1173,402Z" fill="#131313" stroke="#131313"/><path d="M732,427L1173,402L850,404Z" fill="#181818" stroke="#181818"/><path d="M850,404L1173,402L962,326Z" fill="#161616" stroke="#161616"/><path d="M1173,402L1396,426L1313,358Z" fill="#0d0d0d" stroke="#0d0d0d"/></g></svg>